<?xml version="1.0" encoding="UTF-8"?>
<!DOCTYPE svg PUBLIC "-//W3C//DTD SVG 1.1//EN"
    "http://www.w3.org/Graphics/SVG/1.1/DTD/svg11.dtd">
<svg xmlns="http://www.w3.org/2000/svg" height="400.0000" stroke-opacity="1" viewBox="0 0 400 400" font-size="1" width="400.0000" xmlns:xlink="http://www.w3.org/1999/xlink" stroke="rgb(0,0,0)" version="1.1">
  <defs>
  </defs>
  <defs>
  </defs>
  <g stroke-linejoin="miter" stroke-opacity="1.0" fill-opacity="1.0" stroke="rgb(0,0,0)" stroke-width="0.0" fill="rgb(255,127,80)" stroke-linecap="butt" stroke-miterlimit="10.0">
    <path d="M 400.0000,231.6769 l -0.0000,-63.3538 l -19.5774,-60.2530 l -37.2384,-51.2543 l -51.2543,-37.2384 l -60.2530,-19.5774 l -63.3538,0.0000 l -60.2530,19.5774 l -51.2543,37.2384 l -37.2384,51.2543 l -19.5774,60.2530 l 0.0000,63.3538 l 19.5774,60.2530 l 37.2384,51.2543 l 51.2543,37.2384 l 60.2530,19.5774 l 63.3538,-0.0000 l 60.2530,-19.5774 l 51.2543,-37.2384 l 37.2384,-51.2543 Z"/>
  </g>
  <defs>
  </defs>
  <g stroke-linejoin="miter" stroke-opacity="1.0" fill-opacity="1.0" stroke="rgb(0,0,0)" stroke-width="0.0" fill="rgb(127,255,0)" stroke-linecap="butt" stroke-miterlimit="10.0">
    <path d="M 382.2068,215.0981 l -4.9701,-59.9805 l -24.1765,-55.1168 l -40.7629,-44.2803 l -52.9321,-28.6454 l -59.3652,-9.9063 l -59.3652,9.9063 l -52.9321,28.6454 l -40.7629,44.2803 l -24.1765,55.1168 l -4.9701,59.9805 l 14.7748,58.3444 l 32.9187,50.3858 l 47.4953,36.9671 l 56.9250,19.5424 l 60.1861,-0.0000 l 56.9250,-19.5424 l 47.4953,-36.9671 l 32.9187,-50.3858 Z"/>
  </g>
  <defs>
  </defs>
  <g stroke-linejoin="miter" stroke-opacity="1.0" fill-opacity="1.0" stroke="rgb(0,0,0)" stroke-width="0.0" fill="rgb(95,158,160)" stroke-linecap="butt" stroke-miterlimit="10.0">
    <path d="M 354.2768,256.1522 l 9.9011,-56.1522 l -9.9011,-56.1522 l -28.5092,-49.3794 l -43.6786,-36.6507 l -53.5798,-19.5014 l -57.0184,0.0000 l -53.5798,19.5014 l -43.6786,36.6507 l -28.5092,49.3794 l -9.9011,56.1522 l 9.9011,56.1522 l 28.5092,49.3794 l 43.6786,36.6507 l 53.5798,19.5014 l 57.0184,0.0000 l 53.5798,-19.5014 l 43.6786,-36.6507 Z"/>
  </g>
  <defs>
  </defs>
  <g stroke-linejoin="miter" stroke-opacity="1.0" fill-opacity="1.0" stroke="rgb(0,0,0)" stroke-width="0.0" fill="rgb(138,43,226)" stroke-linecap="butt" stroke-miterlimit="10.0">
    <path d="M 340.9391,240.1006 l 4.9687,-53.6210 l -14.7369,-51.7950 l -32.4523,-42.9738 l -45.7848,-28.3487 l -52.9338,-9.8950 l -52.9338,9.8950 l -45.7848,28.3487 l -32.4523,42.9738 l -14.7369,51.7950 l 4.9687,53.6210 l 24.0033,48.2052 l 39.7962,36.2790 l 50.2143,19.4531 l 53.8507,-0.0000 l 50.2143,-19.4531 l 39.7962,-36.2790 Z"/>
  </g>
  <defs>
  </defs>
  <g stroke-linejoin="miter" stroke-opacity="1.0" fill-opacity="1.0" stroke="rgb(0,0,0)" stroke-width="0.0" fill="rgb(0,0,255)" stroke-linecap="butt" stroke-miterlimit="10.0">
    <path d="M 327.4004,225.3415 v -50.6830 l -19.3956,-46.8250 l -35.8383,-35.8383 l -46.8250,-19.3956 l -50.6830,-0.0000 l -46.8250,19.3956 l -35.8383,35.8383 l -19.3956,46.8250 l -0.0000,50.6830 l 19.3956,46.8250 l 35.8383,35.8383 l 46.8250,19.3956 l 50.6830,0.0000 l 46.8250,-19.3956 l 35.8383,-35.8383 Z"/>
  </g>
  <defs>
  </defs>
  <g stroke-linejoin="miter" stroke-opacity="1.0" fill-opacity="1.0" stroke="rgb(0,0,0)" stroke-width="0.0" fill="rgb(255,228,196)" stroke-linecap="butt" stroke-miterlimit="10.0">
    <path d="M 313.6421,211.9443 l -4.9667,-47.2550 l -23.7577,-41.1495 l -38.4407,-27.9288 l -46.4770,-9.8790 l -46.4770,9.8790 l -38.4407,27.9288 l -23.7577,41.1495 l -4.9667,47.2550 l 14.6830,45.1898 l 31.7940,35.3108 l 43.4074,19.3262 l 47.5153,0.0000 l 43.4074,-19.3262 l 31.7940,-35.3108 Z"/>
  </g>
  <defs>
  </defs>
  <g stroke-linejoin="miter" stroke-opacity="1.0" fill-opacity="1.0" stroke="rgb(0,0,0)" stroke-width="0.0" fill="rgb(245,245,220)" stroke-linecap="butt" stroke-miterlimit="10.0">
    <path d="M 289.7800,243.2358 l 9.8683,-43.2358 l -9.8683,-43.2358 l -27.6503,-34.6724 l -39.9558,-19.2417 l -44.3476,0.0000 l -39.9558,19.2417 l -27.6503,34.6724 l -9.8683,43.2358 l 9.8683,43.2358 l 27.6503,34.6724 l 39.9558,19.2417 l 44.3476,-0.0000 l 39.9558,-19.2417 Z"/>
  </g>
  <defs>
  </defs>
  <g stroke-linejoin="miter" stroke-opacity="1.0" fill-opacity="1.0" stroke="rgb(0,0,0)" stroke-width="0.0" fill="rgb(240,255,255)" stroke-linecap="butt" stroke-miterlimit="10.0">
    <path d="M 280.4459,230.5091 l 4.9637,-40.8797 l -14.6026,-38.5039 l -30.8236,-27.3074 l -39.9833,-9.8550 l -39.9833,9.8550 l -30.8236,27.3074 l -14.6026,38.5039 l 4.9637,40.8797 l 23.3929,33.8904 l 36.4630,19.1373 l 41.1800,-0.0000 l 36.4630,-19.1373 Z"/>
  </g>
  <defs>
  </defs>
  <g stroke-linejoin="miter" stroke-opacity="1.0" fill-opacity="1.0" stroke="rgb(0,0,0)" stroke-width="0.0" fill="rgb(127,255,212)" stroke-linecap="butt" stroke-miterlimit="10.0">
    <path d="M 270.9319,219.0061 l -0.0000,-38.0123 l -19.0061,-32.9196 l -32.9196,-19.0061 l -38.0123,0.0000 l -32.9196,19.0061 l -19.0061,32.9196 l -0.0000,38.0123 l 19.0061,32.9196 l 32.9196,19.0061 l 38.0123,-0.0000 l 32.9196,-19.0061 Z"/>
  </g>
  <defs>
  </defs>
  <g stroke-linejoin="miter" stroke-opacity="1.0" fill-opacity="1.0" stroke="rgb(0,0,0)" stroke-width="0.0" fill="rgb(0,255,255)" stroke-linecap="butt" stroke-miterlimit="10.0">
    <path d="M 261.2104,208.8007 l -4.9589,-34.4899 l -22.8183,-26.3338 l -33.4331,-9.8169 l -33.4331,9.8169 l -22.8183,26.3338 l -4.9589,34.4899 l 14.4750,31.6957 l 29.3131,18.8384 l 34.8446,-0.0000 l 29.3131,-18.8384 Z"/>
  </g>
  <defs>
  </defs>
  <g stroke-linejoin="miter" stroke-opacity="1.0" fill-opacity="1.0" stroke="rgb(0,0,0)" stroke-width="0.0" fill="rgb(0,139,139)" stroke-linecap="butt" stroke-miterlimit="10.0">
    <path d="M 241.4656,230.1265 l 9.7887,-30.1265 l -9.7887,-30.1265 l -25.6271,-18.6192 l -31.6769,-0.0000 l -25.6271,18.6192 l -9.7887,30.1265 l 9.7887,30.1265 l 25.6271,18.6192 l 31.6769,0.0000 Z"/>
  </g>
  <defs>
  </defs>
  <g stroke-linejoin="miter" stroke-opacity="1.0" fill-opacity="1.0" stroke="rgb(0,0,0)" stroke-width="0.0" fill="rgb(255,127,80)" stroke-linecap="butt" stroke-miterlimit="10.0">
    <path d="M 236.0939,220.8388 l 4.9506,-28.0761 l -14.2546,-24.6897 l -26.7899,-9.7507 l -26.7899,9.7507 l -14.2546,24.6897 l 4.9506,28.0761 l 21.8393,18.3254 l 28.5092,-0.0000 Z"/>
  </g>
  <defs>
  </defs>
  <g stroke-linejoin="miter" stroke-opacity="1.0" fill-opacity="1.0" stroke="rgb(0,0,0)" stroke-width="0.0" fill="rgb(127,255,0)" stroke-linecap="butt" stroke-miterlimit="10.0">
    <path d="M 230.5899,212.6708 l -0.0000,-25.3415 l -17.9192,-17.9192 l -25.3415,0.0000 l -17.9192,17.9192 l 0.0000,25.3415 l 17.9192,17.9192 l 25.3415,-0.0000 Z"/>
  </g>
  <defs>
  </defs>
  <g stroke-linejoin="miter" stroke-opacity="1.0" fill-opacity="1.0" stroke="rgb(0,0,0)" stroke-width="0.0" fill="rgb(95,158,160)" stroke-linecap="butt" stroke-miterlimit="10.0">
    <path d="M 224.9121,205.6860 l -4.9341,-21.6179 l -19.9779,-9.6209 l -19.9779,9.6209 l -4.9341,21.6179 l 13.8252,17.3362 l 22.1738,-0.0000 Z"/>
  </g>
  <defs>
  </defs>
  <g stroke-linejoin="miter" stroke-opacity="1.0" fill-opacity="1.0" stroke="rgb(0,0,0)" stroke-width="0.0" fill="rgb(138,43,226)" stroke-linecap="butt" stroke-miterlimit="10.0">
    <path d="M 209.5031,216.4598 l 9.5031,-16.4598 l -9.5031,-16.4598 l -19.0061,-0.0000 l -9.5031,16.4598 l 9.5031,16.4598 Z"/>
  </g>
  <defs>
  </defs>
  <g stroke-linejoin="miter" stroke-opacity="1.0" fill-opacity="1.0" stroke="rgb(0,0,0)" stroke-width="0.0" fill="rgb(0,0,255)" stroke-linecap="butt" stroke-miterlimit="10.0">
    <path d="M 207.9192,210.8999 l 4.8943,-15.0633 l -12.8136,-9.3096 l -12.8136,9.3096 l 4.8943,15.0633 Z"/>
  </g>
  <defs>
  </defs>
  <g stroke-linejoin="miter" stroke-opacity="1.0" fill-opacity="1.0" stroke="rgb(0,0,0)" stroke-width="0.0" fill="rgb(255,228,196)" stroke-linecap="butt" stroke-miterlimit="10.0">
    <path d="M 206.3354,206.3354 v -12.6708 l -12.6708,-0.0000 l -0.0000,12.6708 Z"/>
  </g>
  <defs>
  </defs>
  <g stroke-linejoin="miter" stroke-opacity="1.0" fill-opacity="1.0" stroke="rgb(0,0,0)" stroke-width="0.0" fill="rgb(245,245,220)" stroke-linecap="butt" stroke-miterlimit="10.0">
    <path d="M 204.7515,202.7433 l -4.7515,-8.2299 l -4.7515,8.2299 Z"/>
  </g>
</svg>